<svg xmlns="http://www.w3.org/2000/svg" viewBox="0 0 128 128">
  <defs>
    <linearGradient id="bg" x1="0" x2="1" y1="0" y2="1">
      <stop offset="0" stop-color="#071824"/>
      <stop offset="0.55" stop-color="#10324a"/>
      <stop offset="1" stop-color="#157a67"/>
    </linearGradient>
    <linearGradient id="panel" x1="0" x2="1" y1="0" y2="1">
      <stop offset="0" stop-color="#173e56" stop-opacity="0.96"/>
      <stop offset="1" stop-color="#0b2234" stop-opacity="0.88"/>
    </linearGradient>
    <linearGradient id="core" x1="0" x2="1" y1="0" y2="1">
      <stop offset="0" stop-color="#ffd86a"/>
      <stop offset="1" stop-color="#ff8b38"/>
    </linearGradient>
    <linearGradient id="node" x1="0" x2="1" y1="0" y2="1">
      <stop offset="0" stop-color="#f4fdff"/>
      <stop offset="1" stop-color="#a8f2df"/>
    </linearGradient>
    <radialGradient id="glow" cx="0.5" cy="0.48" r="0.55">
      <stop offset="0" stop-color="#5dd1b7" stop-opacity="0.55"/>
      <stop offset="1" stop-color="#5dd1b7" stop-opacity="0"/>
    </radialGradient>
  </defs>
  <rect width="128" height="128" rx="30" fill="url(#bg)"/>
  <circle cx="64" cy="60" r="42" fill="url(#glow)"/>
  <rect x="14" y="14" width="100" height="100" rx="24" fill="url(#panel)" stroke="#dff7ff" stroke-opacity="0.14"/>
  <rect x="24" y="25" width="80" height="12" rx="6" fill="#effcff" fill-opacity="0.12"/>
  <circle cx="33" cy="31" r="2.4" fill="#ffb17a"/>
  <circle cx="41" cy="31" r="2.4" fill="#ffe28c"/>
  <circle cx="49" cy="31" r="2.4" fill="#7ce4c6"/>
  <path
    d="M64 66V42M64 66 42 50M64 66 86 50M64 66V84M64 84 46 94M64 84 82 94"
    fill="none"
    stroke="#dffbff"
    stroke-linecap="round"
    stroke-linejoin="round"
    stroke-opacity="0.9"
    stroke-width="7"
  />
  <circle cx="64" cy="38" r="8.5" fill="url(#node)"/>
  <circle cx="38" cy="48" r="8.5" fill="url(#node)"/>
  <circle cx="90" cy="48" r="8.5" fill="url(#node)"/>
  <circle cx="42" cy="98" r="8.5" fill="url(#node)"/>
  <circle cx="86" cy="98" r="8.5" fill="url(#node)"/>
  <circle cx="64" cy="66" r="15" fill="url(#core)"/>
  <circle cx="64" cy="66" r="6.5" fill="#fff7de"/>
</svg>
